<svg width="709" height="122" viewBox="0 0 709 122" fill="none" xmlns="http://www.w3.org/2000/svg">
<path d="M38.1 108.635C32.258 108.635 26.9663 107.196 22.225 104.317C17.5683 101.438 13.8853 97.2897 11.176 91.871C8.46667 86.3677 7.112 79.8907 7.112 72.44C7.112 59.5707 9.86367 47.675 15.367 36.753C20.8703 25.7463 28.9983 16.941 39.751 10.337C50.5037 3.64833 63.4153 0.303994 78.486 0.303994C82.3807 0.303994 86.5293 0.600328 90.932 1.193C95.4193 1.78566 99.4833 2.67466 103.124 3.85999C105.495 4.53733 106.68 6.23066 106.68 8.94C106.68 11.1413 105.833 13.2157 104.14 15.163C102.531 17.1103 100.626 18.084 98.425 18.084C97.7477 18.084 97.2397 18.0417 96.901 17.957C92.4983 16.941 88.7307 16.2213 85.598 15.798C82.4653 15.29 79.1633 15.036 75.692 15.036C64.9393 15.036 55.7953 17.6607 48.26 22.91C40.7247 28.0747 35.0943 34.9327 31.369 43.484C27.6437 52.0353 25.781 61.264 25.781 71.17C25.781 78.3667 27.178 83.9547 29.972 87.934C32.8507 91.8287 36.576 93.776 41.148 93.776C46.3127 93.776 50.8423 91.6593 54.737 87.426C58.6317 83.1927 62.1877 76.3347 65.405 66.852C68.6223 57.3693 71.7973 44.5 74.93 28.244C75.438 25.8733 76.454 24.2647 77.978 23.418C79.502 22.5713 81.534 22.148 84.074 22.148C90.0853 22.148 93.091 24.0953 93.091 27.99C93.091 28.6673 92.964 29.514 92.71 30.53C90.5087 38.7427 88.4767 47.8443 86.614 57.835C84.836 67.741 83.947 75.2763 83.947 80.441C83.947 85.013 84.6243 88.3573 85.979 90.474C87.3337 92.506 89.408 93.522 92.202 93.522C94.9113 93.522 97.4937 92.633 99.949 90.855C102.404 88.9923 105.495 85.8597 109.22 81.457C110.236 80.2717 111.379 79.679 112.649 79.679C113.75 79.679 114.596 80.187 115.189 81.203C115.866 82.219 116.205 83.616 116.205 85.394C116.205 88.696 115.401 91.3207 113.792 93.268C109.643 98.2633 105.579 102.073 101.6 104.698C97.6207 107.323 92.7523 108.635 86.995 108.635C81.0683 108.635 76.2847 106.942 72.644 103.555C69.0033 100.084 66.7173 95.2153 65.786 88.95C59.5207 102.073 50.292 108.635 38.1 108.635ZM168.8 69.392C169.054 69.3073 169.477 69.265 170.07 69.265C171.34 69.265 172.314 69.6883 172.991 70.535C173.668 71.3817 174.007 72.5247 174.007 73.964C174.007 76.5887 173.499 78.663 172.483 80.187C171.467 81.6263 169.943 82.6847 167.911 83.362C164.016 84.632 159.868 85.267 155.465 85.267C151.74 85.267 148.226 84.759 144.924 83.743C142.469 87.7223 139.759 91.8287 136.796 96.062C133.409 100.888 130.488 104.19 128.033 105.968C125.578 107.746 122.784 108.635 119.651 108.635C116.18 108.635 113.428 107.28 111.396 104.571C109.449 101.862 108.221 97.586 107.713 91.744C106.697 79.8907 106.189 69.519 106.189 60.629V56.184C106.274 53.39 107.036 51.4427 108.475 50.342C109.914 49.2413 112.073 48.691 114.952 48.691C117.153 48.691 118.762 49.199 119.778 50.215C120.879 51.1463 121.429 52.755 121.429 55.041C121.429 64.7777 122.022 77.4353 123.207 93.014C128.287 85.4787 132.097 79.4673 134.637 74.98C133.367 72.5247 132.732 69.6037 132.732 66.217C132.732 63.3383 133.367 60.5443 134.637 57.835C135.907 55.1257 137.643 52.9243 139.844 51.231C142.045 49.5377 144.543 48.691 147.337 48.691C149.792 48.691 151.782 49.58 153.306 51.358C154.83 53.0513 155.592 55.549 155.592 58.851C155.592 62.661 154.576 67.0213 152.544 71.932C155.761 71.7627 160.037 71.1277 165.371 70.027L168.8 69.392ZM178.607 108.635C173.357 108.635 169.166 106.73 166.034 102.92C162.901 99.11 161.335 94.1147 161.335 87.934C161.335 81.1607 162.901 74.7683 166.034 68.757C169.166 62.661 173.315 57.7927 178.48 54.152C183.729 50.4267 189.275 48.564 195.117 48.564C196.979 48.564 198.207 48.945 198.8 49.707C199.477 50.3843 200.027 51.6543 200.451 53.517C202.229 53.1783 204.091 53.009 206.039 53.009C210.187 53.009 212.262 54.4907 212.262 57.454C212.262 59.232 211.627 63.4653 210.357 70.154C208.409 79.8907 207.436 86.664 207.436 90.474C207.436 91.744 207.732 92.76 208.325 93.522C209.002 94.284 209.849 94.665 210.865 94.665C212.473 94.665 214.421 93.649 216.707 91.617C218.993 89.5003 222.083 86.1137 225.978 81.457C226.994 80.2717 228.137 79.679 229.407 79.679C230.507 79.679 231.354 80.187 231.947 81.203C232.624 82.219 232.963 83.616 232.963 85.394C232.963 88.7807 232.158 91.4053 230.55 93.268C227.078 97.586 223.395 101.227 219.501 104.19C215.606 107.153 211.838 108.635 208.198 108.635C205.404 108.635 202.821 107.704 200.451 105.841C198.165 103.894 196.429 101.269 195.244 97.967C190.841 105.079 185.295 108.635 178.607 108.635ZM183.179 95.808C185.041 95.808 186.819 94.7073 188.513 92.506C190.206 90.3047 191.434 87.3837 192.196 83.743L196.895 60.375C193.339 60.4597 190.037 61.8143 186.989 64.439C184.025 66.979 181.655 70.3657 179.877 74.599C178.099 78.8323 177.21 83.3197 177.21 88.061C177.21 90.6857 177.718 92.633 178.734 93.903C179.834 95.173 181.316 95.808 183.179 95.808ZM283.533 79.679C284.634 79.679 285.481 80.187 286.073 81.203C286.751 82.219 287.089 83.616 287.089 85.394C287.089 88.5267 286.285 91.1513 284.676 93.268C280.697 98.4327 275.744 102.497 269.817 105.46C263.975 108.423 257.371 109.905 250.005 109.905C244.248 109.905 239.253 109.058 235.019 107.365C230.786 105.587 227.526 103.216 225.24 100.253C223.039 97.205 221.938 93.8183 221.938 90.093C221.938 84.505 224.182 79.552 228.669 75.234C233.157 70.916 239.591 66.7673 247.973 62.788L227.145 63.296C225.283 63.3807 223.843 62.7457 222.827 61.391C221.896 59.9517 221.43 58.2583 221.43 56.311C221.43 54.279 221.896 52.501 222.827 50.977C223.843 49.3683 225.198 48.564 226.891 48.564C230.786 48.564 235.993 48.8603 242.512 49.453C243.867 49.5377 246.322 49.707 249.878 49.961C253.519 50.215 256.567 50.342 259.022 50.342C259.869 50.342 261.478 50.0033 263.848 49.326C264.272 49.2413 265.076 49.0297 266.261 48.691C267.531 48.3523 268.59 48.183 269.436 48.183C270.791 48.183 271.892 48.7757 272.738 49.961C273.67 51.1463 274.135 52.9667 274.135 55.422C274.135 58.1313 273.5 60.248 272.23 61.772C270.96 63.296 268.971 64.6507 266.261 65.836C258.557 69.138 252.164 72.694 247.084 76.504C242.004 80.2293 239.464 83.9547 239.464 87.68C239.464 90.0507 240.565 91.998 242.766 93.522C244.968 95.046 248.227 95.808 252.545 95.808C257.287 95.808 262.07 94.6227 266.896 92.252C271.807 89.8813 276.21 86.283 280.104 81.457C281.12 80.2717 282.263 79.679 283.533 79.679ZM341.485 69.011C342.586 69.011 343.432 69.5613 344.025 70.662C344.618 71.7627 344.914 73.1597 344.914 74.853C344.914 78.917 343.686 81.33 341.231 82.092C336.151 83.87 330.563 84.886 324.467 85.14C322.858 92.252 319.683 97.967 314.942 102.285C310.201 106.518 304.824 108.635 298.813 108.635C293.733 108.635 289.373 107.407 285.732 104.952C282.176 102.497 279.467 99.237 277.604 95.173C275.741 91.109 274.81 86.7063 274.81 81.965C274.81 75.5303 276.038 69.8153 278.493 64.82C280.948 59.74 284.335 55.803 288.653 53.009C292.971 50.1303 297.755 48.691 303.004 48.691C309.439 48.691 314.603 50.9347 318.498 55.422C322.477 59.8247 324.806 65.2857 325.483 71.805C329.462 71.551 334.204 70.7043 339.707 69.265C340.384 69.0957 340.977 69.011 341.485 69.011ZM299.829 95.173C302.538 95.173 304.867 94.0723 306.814 91.871C308.846 89.6697 310.201 86.4947 310.878 82.346C308.253 80.568 306.221 78.2397 304.782 75.361C303.427 72.4823 302.75 69.4343 302.75 66.217C302.75 64.8623 302.877 63.5077 303.131 62.153H302.496C299.109 62.153 296.273 63.804 293.987 67.106C291.786 70.3233 290.685 74.8953 290.685 80.822C290.685 85.4787 291.574 89.0347 293.352 91.49C295.215 93.9453 297.374 95.173 299.829 95.173ZM398.119 69.392C398.373 69.3073 398.797 69.265 399.389 69.265C400.659 69.265 401.633 69.6883 402.31 70.535C402.988 71.3817 403.326 72.5247 403.326 73.964C403.326 76.5887 402.818 78.663 401.802 80.187C400.786 81.6263 399.262 82.6847 397.23 83.362C393.336 84.632 389.187 85.267 384.784 85.267C381.059 85.267 377.545 84.759 374.243 83.743C371.788 87.7223 369.079 91.8287 366.115 96.062C362.729 100.888 359.808 104.19 357.352 105.968C354.897 107.746 352.103 108.635 348.97 108.635C345.499 108.635 342.747 107.28 340.715 104.571C338.768 101.862 337.54 97.586 337.032 91.744C336.016 79.8907 335.508 69.519 335.508 60.629V56.184C335.593 53.39 336.355 51.4427 337.794 50.342C339.234 49.2413 341.393 48.691 344.271 48.691C346.473 48.691 348.081 49.199 349.097 50.215C350.198 51.1463 350.748 52.755 350.748 55.041C350.748 64.7777 351.341 77.4353 352.526 93.014C357.606 85.4787 361.416 79.4673 363.956 74.98C362.686 72.5247 362.051 69.6037 362.051 66.217C362.051 63.3383 362.686 60.5443 363.956 57.835C365.226 55.1257 366.962 52.9243 369.163 51.231C371.365 49.5377 373.862 48.691 376.656 48.691C379.112 48.691 381.101 49.58 382.625 51.358C384.149 53.0513 384.911 55.549 384.911 58.851C384.911 62.661 383.895 67.0213 381.863 71.932C385.081 71.7627 389.356 71.1277 394.69 70.027L398.119 69.392ZM483.491 10.591C483.491 13.131 482.941 15.036 481.84 16.306C480.824 17.576 479.131 18.211 476.76 18.211C476.591 19.989 476.21 23.0793 475.617 27.482C474.77 33.4087 474.305 36.7107 474.22 37.388C466.685 93.522 450.979 121.589 427.103 121.589C420.076 121.589 414.572 119.599 410.593 115.62C406.698 111.641 404.751 106.645 404.751 100.634C404.751 89.8813 409.323 80.3987 418.467 72.186C427.611 63.8887 439.634 57.0307 454.535 51.612C455.466 45.6007 456.186 40.2243 456.694 35.483L458.98 16.306C453.9 15.798 449.159 15.544 444.756 15.544C432.987 15.544 424.309 16.687 418.721 18.973C413.133 21.259 410.339 24.9843 410.339 30.149C410.339 32.689 411.186 35.4407 412.879 38.404C413.387 39.2507 413.641 40.1397 413.641 41.071C413.641 42.849 412.71 44.4577 410.847 45.897C409.069 47.2517 407.122 47.929 405.005 47.929C402.296 47.929 400.221 46.786 398.782 44.5C396.411 40.6053 395.226 36.0757 395.226 30.911C395.226 10.591 413.006 0.430992 448.566 0.430992C458.895 0.430992 468.124 1.44699 476.252 3.479C481.078 4.66433 483.491 7.035 483.491 10.591ZM428.754 108C432.903 108 437.051 104.867 441.2 98.602C445.349 92.3367 448.989 81.3723 452.122 65.709C431.463 74.7683 421.134 85.8597 421.134 98.983C421.134 101.862 421.811 104.105 423.166 105.714C424.521 107.238 426.383 108 428.754 108ZM493.998 108.635C488.749 108.635 484.558 106.73 481.425 102.92C478.293 99.11 476.726 94.1147 476.726 87.934C476.726 81.1607 478.293 74.7683 481.425 68.757C484.558 62.661 488.707 57.7927 493.871 54.152C499.121 50.4267 504.666 48.564 510.508 48.564C512.371 48.564 513.599 48.945 514.191 49.707C514.869 50.3843 515.419 51.6543 515.842 53.517C517.62 53.1783 519.483 53.009 521.43 53.009C525.579 53.009 527.653 54.4907 527.653 57.454C527.653 59.232 527.018 63.4653 525.748 70.154C523.801 79.8907 522.827 86.664 522.827 90.474C522.827 91.744 523.124 92.76 523.716 93.522C524.394 94.284 525.24 94.665 526.256 94.665C527.865 94.665 529.812 93.649 532.098 91.617C534.384 89.5003 537.475 86.1137 541.369 81.457C542.385 80.2717 543.528 79.679 544.798 79.679C545.899 79.679 546.746 80.187 547.338 81.203C548.016 82.219 548.354 83.616 548.354 85.394C548.354 88.7807 547.55 91.4053 545.941 93.268C542.47 97.586 538.787 101.227 534.892 104.19C530.998 107.153 527.23 108.635 523.589 108.635C520.795 108.635 518.213 107.704 515.842 105.841C513.556 103.894 511.821 101.269 510.635 97.967C506.233 105.079 500.687 108.635 493.998 108.635ZM498.57 95.808C500.433 95.808 502.211 94.7073 503.904 92.506C505.598 90.3047 506.825 87.3837 507.587 83.743L512.286 60.375C508.73 60.4597 505.428 61.8143 502.38 64.439C499.417 66.979 497.046 70.3657 495.268 74.599C493.49 78.8323 492.601 83.3197 492.601 88.061C492.601 90.6857 493.109 92.633 494.125 93.903C495.226 95.173 496.708 95.808 498.57 95.808ZM561.655 111.429C557.252 111.429 553.865 110.413 551.495 108.381C549.209 106.349 548.066 104.063 548.066 101.523C548.066 99.3217 548.87 97.4167 550.479 95.808C552.087 94.1993 554.458 93.395 557.591 93.395C558.691 93.395 559.961 93.522 561.401 93.776C562.925 93.9453 564.068 94.0723 564.83 94.157C564.745 91.9557 564.237 89.8813 563.306 87.934C562.459 85.9867 561.358 84.124 560.004 82.346C558.649 80.4833 557.379 78.8747 556.194 77.52C553.569 82.5153 550.944 86.664 548.32 89.966C545.78 93.268 542.986 96.4007 539.938 99.364C538.414 100.888 536.805 101.65 535.112 101.65C533.757 101.65 532.656 101.184 531.81 100.253C530.963 99.237 530.54 98.0093 530.54 96.57C530.54 94.8767 531.132 93.3103 532.318 91.871L533.969 89.839C538.625 84.0817 542.139 79.3403 544.51 75.615C545.949 73.1597 547.642 69.9 549.59 65.836C551.537 61.6873 553.442 57.4117 555.305 53.009C556.913 49.2837 560.258 47.421 565.338 47.421C567.708 47.421 569.359 47.6327 570.291 48.056C571.222 48.4793 571.688 49.1567 571.688 50.088C571.688 50.596 571.518 51.4003 571.18 52.501C570.841 53.6017 570.375 54.7023 569.783 55.803C568.259 58.851 567.497 61.4333 567.497 63.55C567.497 64.82 567.92 66.217 568.767 67.741C569.698 69.265 571.095 71.17 572.958 73.456C575.667 77.012 577.699 80.06 579.054 82.6C580.493 85.0553 581.213 87.7647 581.213 90.728C581.213 91.5747 581.128 92.76 580.959 94.284C585.107 92.6753 589.976 88.3997 595.564 81.457C596.58 80.2717 597.723 79.679 598.993 79.679C600.093 79.679 600.94 80.187 601.533 81.203C602.21 82.219 602.549 83.616 602.549 85.394C602.549 88.6113 601.744 91.236 600.136 93.268C595.902 98.5173 591.838 102.116 587.944 104.063C584.134 105.926 579.392 106.942 573.72 107.111C570.333 109.99 566.311 111.429 561.655 111.429ZM605.185 108.635C601.375 108.635 598.242 106.899 595.787 103.428C593.416 99.872 592.231 95.4693 592.231 90.22C592.231 83.87 592.654 78.0703 593.501 72.821C594.347 67.487 595.744 61.8567 597.692 55.93C598.538 53.39 599.724 51.5697 601.248 50.469C602.772 49.3683 605.185 48.818 608.487 48.818C610.349 48.818 611.619 49.1143 612.297 49.707C613.059 50.2997 613.44 51.1887 613.44 52.374C613.44 53.0513 612.974 55.3373 612.043 59.232C611.196 62.3647 610.519 65.201 610.011 67.741C608.317 76.631 607.471 82.5577 607.471 85.521C607.471 87.299 607.682 88.569 608.106 89.331C608.529 90.0083 609.206 90.347 610.138 90.347C611.408 90.347 612.974 89.077 614.837 86.537C616.784 83.997 618.816 80.1447 620.933 74.98C623.134 69.8153 625.251 63.4653 627.283 55.93C627.96 53.39 628.976 51.5697 630.331 50.469C631.77 49.3683 633.887 48.818 636.681 48.818C638.628 48.818 639.983 49.072 640.745 49.58C641.507 50.0033 641.888 50.85 641.888 52.12C641.888 54.2367 640.829 60.0363 638.713 69.519C636.342 80.3563 635.157 87.045 635.157 89.585C635.157 91.1937 635.495 92.4637 636.173 93.395C636.85 94.2417 637.739 94.665 638.84 94.665C640.533 94.665 642.523 93.649 644.809 91.617C647.179 89.5003 650.312 86.1137 654.207 81.457C655.223 80.2717 656.366 79.679 657.636 79.679C658.736 79.679 659.583 80.187 660.176 81.203C660.853 82.219 661.192 83.616 661.192 85.394C661.192 88.7807 660.387 91.4053 658.779 93.268C655.138 97.7553 651.201 101.438 646.968 104.317C642.819 107.196 638.078 108.635 632.744 108.635C628.68 108.635 625.674 107.069 623.727 103.936C621.864 100.803 620.933 96.4007 620.933 90.728C619.493 96.4853 617.334 100.93 614.456 104.063C611.577 107.111 608.487 108.635 605.185 108.635ZM702.202 66.217C704.065 66.217 705.631 66.8943 706.901 68.249C708.256 69.519 708.933 71.1277 708.933 73.075C708.933 74.1757 708.679 75.361 708.171 76.631C706.816 79.7637 704.911 82.3883 702.456 84.505C700.001 86.6217 697.291 87.68 694.328 87.68C691.957 87.68 689.925 86.8333 688.232 85.14C686.623 83.4467 685.819 81.1607 685.819 78.282C685.819 76.6733 685.904 74.9377 686.073 73.075C686.242 71.7203 686.327 70.789 686.327 70.281C686.327 69.6037 686.158 69.0957 685.819 68.757C685.565 68.4183 685.226 68.249 684.803 68.249C683.618 68.249 682.009 69.6883 679.977 72.567C677.945 75.361 675.913 79.0863 673.881 83.743C671.849 88.3997 670.198 93.3103 668.928 98.475C667.997 102.539 666.938 105.248 665.753 106.603C664.568 107.958 662.62 108.635 659.911 108.635C656.694 108.635 654.408 106.942 653.053 103.555C651.783 100.168 651.148 94.7497 651.148 87.299C651.148 76.2923 652.714 65.836 655.847 55.93C656.609 53.4747 657.837 51.6967 659.53 50.596C661.308 49.4107 663.763 48.818 666.896 48.818C668.589 48.818 669.775 49.0297 670.452 49.453C671.129 49.8763 671.468 50.6807 671.468 51.866C671.468 53.2207 670.833 56.2687 669.563 61.01C668.716 64.3967 668.039 67.36 667.531 69.9C667.023 72.44 666.6 75.5727 666.261 79.298C669.055 72.0167 672.188 66.09 675.659 61.518C679.13 56.946 682.517 53.6863 685.819 51.739C689.121 49.7917 692.127 48.818 694.836 48.818C697.291 48.818 699.154 49.5377 700.424 50.977C701.779 52.3317 702.456 54.3637 702.456 57.073C702.456 58.6817 701.99 61.7297 701.059 66.217H702.202Z" fill="#573A3A"/>
</svg>
